<svg width="35" height="35" viewBox="0 0 35 35" fill="none" xmlns="http://www.w3.org/2000/svg">
<path d="M32.5794 15.521L32.5685 15.5162L3.37354 3.40702C3.12797 3.30424 2.86077 3.26393 2.59581 3.2897C2.33086 3.31547 2.07643 3.40651 1.85527 3.55468C1.62162 3.70778 1.42969 3.91657 1.29676 4.16226C1.16383 4.40796 1.09407 4.68285 1.09375 4.96219V12.7066C1.09388 13.0885 1.22723 13.4584 1.47081 13.7525C1.71439 14.0466 2.05295 14.2466 2.42813 14.3179L18.3511 17.2621C18.4136 17.274 18.4701 17.3073 18.5107 17.3563C18.5514 17.4054 18.5736 17.4671 18.5736 17.5308C18.5736 17.5944 18.5514 17.6561 18.5107 17.7052C18.4701 17.7542 18.4136 17.7875 18.3511 17.7994L2.42881 20.7436C2.05374 20.8147 1.7152 21.0144 1.47151 21.3083C1.22782 21.6021 1.09423 21.9718 1.09375 22.3535V30.0993C1.09357 30.3661 1.15962 30.6287 1.28597 30.8636C1.41232 31.0985 1.59502 31.2984 1.81768 31.4453C2.08551 31.6233 2.39983 31.7184 2.72139 31.7187C2.94494 31.7185 3.16619 31.6737 3.37217 31.5868L32.5664 19.5467L32.5794 19.5405C32.9724 19.3716 33.3072 19.0912 33.5425 18.734C33.7778 18.3768 33.9032 17.9585 33.9032 17.5308C33.9032 17.103 33.7778 16.6847 33.5425 16.3275C33.3072 15.9703 32.9724 15.6899 32.5794 15.521Z" fill="#0078CE"/>
</svg>
