<svg width="30" height="30" viewBox="0 0 30 30" fill="none" xmlns="http://www.w3.org/2000/svg">
<path d="M11.9375 16.4375L22.5 5.875C22.75 5.625 23.0471 5.5 23.3913 5.5C23.7354 5.5 24.0321 5.625 24.2813 5.875C24.5313 6.125 24.6563 6.42167 24.6563 6.765C24.6563 7.10833 24.5313 7.40542 24.2813 7.65625L12.8125 19.125C12.5625 19.375 12.2708 19.5 11.9375 19.5C11.6042 19.5 11.3125 19.375 11.0625 19.125L5.71876 13.7812C5.46876 13.5312 5.34876 13.2342 5.35876 12.89C5.36876 12.5458 5.49918 12.2492 5.75001 12C6.00001 11.75 6.2971 11.625 6.64126 11.625C6.98543 11.625 7.2821 11.75 7.53126 12L11.9375 16.4375ZM7.50001 25C7.14584 25 6.84876 24.88 6.60876 24.64C6.36876 24.4 6.24918 24.1033 6.25001 23.75C6.25001 23.3958 6.37001 23.0988 6.61001 22.8588C6.85001 22.6188 7.14668 22.4992 7.50001 22.5H22.5C22.8542 22.5 23.1513 22.62 23.3913 22.86C23.6313 23.1 23.7508 23.3967 23.75 23.75C23.75 24.1042 23.63 24.4012 23.39 24.6412C23.15 24.8812 22.8533 25.0008 22.5 25H7.50001Z" fill="#00BC13"/>
</svg>
